<?xml version="1.0" encoding="UTF-8"?>
<svg width="1000px" height="1000px" viewBox="0 0 1000 1000" version="1.1" xmlns="http://www.w3.org/2000/svg" xmlns:xlink="http://www.w3.org/1999/xlink">
    <title>Logo</title>
    <g id="Page-1" stroke="none" stroke-width="1" fill="none" fill-rule="evenodd">
        <g id="Artboard">
            <rect id="Rectangle" fill="#5E5CE6" x="0" y="0" width="1000" height="999.999999"></rect>
            <path d="M255.522001,494.494628 C391.289652,436.97163 481.82269,399.048958 527.121107,380.726594 C656.457275,328.412527 683.332228,319.325009 700.848947,319.021734 C704.701583,318.958904 713.315797,319.887445 718.895725,324.290498 C723.607303,328.008342 724.903642,333.030625 725.523985,336.555552 C726.144327,340.08048 726.916803,348.110353 726.302748,354.384665 C719.293974,425.998632 688.96712,599.786838 673.538543,679.995715 C667.010134,713.93509 654.155496,725.314791 641.710712,726.42845 C614.665313,728.848677 594.128279,709.047128 567.933485,692.348949 C526.943825,666.219583 503.787267,649.953967 463.999693,624.45653 C418.018275,594.989836 447.826118,578.794429 474.030794,552.326594 C480.888683,545.399836 600.051304,439.996811 602.357703,430.435108 C602.646153,429.239248 602.913851,424.781684 600.190704,422.427925 C597.467558,420.074166 593.448426,420.879058 590.548109,421.519203 C586.436997,422.426576 520.955468,464.515643 394.10353,547.786403 C375.516822,560.198025 358.681548,566.245389 343.597727,565.928487 C326.969029,565.579121 294.98207,556.785262 271.203064,549.268487 C242.037137,540.048858 218.856632,535.174365 220.87514,519.516585 C221.9265,511.361041 233.475447,503.020389 255.522001,494.494628 L255.522001,494.494628 Z" id="Path-3" fill="#FFFFFF" fill-rule="nonzero"></path>
        </g>
    </g>
</svg>