<?xml version="1.0" encoding="UTF-8"?>
<svg width="1074px" height="1105px" viewBox="0 0 1074 1105" version="1.1" xmlns="http://www.w3.org/2000/svg" xmlns:xlink="http://www.w3.org/1999/xlink">
    <title>Logo</title>
    <defs>
        <linearGradient x1="50%" y1="0%" x2="50%" y2="99.2583404%" id="linearGradient-1">
            <stop stop-color="#2AABEE" offset="0%"></stop>
            <stop stop-color="#229ED9" offset="100%"></stop>
        </linearGradient>
    </defs>
    <g id="Page-1" stroke="none" stroke-width="1" fill="none" fill-rule="evenodd">
        <g id="Logo" transform="translate(0.000000, 0.799999)">
            <g id="layer2" transform="translate(0.000000, 0.000000)" fill="#FFFFFF" fill-rule="nonzero">
                <rect id="rect363" x="0" y="-1.42108547e-14" width="1073.6" height="1104"></rect>
            </g>
            <g id="layer3" transform="translate(0.000000, 0.000001)">
                <g id="Artboard" transform="translate(0.000000, -0.000000)">
                    <circle id="Oval" fill="url(#linearGradient-1)" fill-rule="nonzero" cx="548" cy="551.2" r="500"></circle>
                    <rect id="Rectangle" stroke="#979797" fill="#5E5CE6" x="0.5" y="0.5" width="1072.6" height="1103"></rect>
                    <path d="M274.32842,545.92207 C420.08857,482.41668 517.28484,440.55005 565.91722,420.32216 C704.77253,362.56743 733.62548,352.53481 752.43143,352.199994 C756.56762,352.13063 765.81584,353.15574 771.80645,358.01671 C776.8648,362.12121 778.25655,367.66581 778.92255,371.55733 C779.58855,375.44885 780.41788,384.31383 779.75863,391.24067 C772.23401,470.30249 739.6751,662.16467 723.11098,750.71527 C716.10208,788.18434 702.30134,800.74753 688.94062,801.97701 C659.90468,804.64894 637.85612,782.78803 609.73339,764.35324 C565.72689,735.50642 540.86601,717.54918 498.15007,689.40001 C448.78442,656.86878 480.78612,638.98905 508.91946,609.76856 C516.28209,602.12142 644.21508,485.75648 646.69123,475.20036 C647.00091,473.88013 647.28831,468.95898 644.36474,466.36043 C641.44117,463.76188 637.12623,464.65048 634.01245,465.3572 C629.59876,466.35894 559.29779,512.82527 423.10955,604.75619 C403.15486,618.45862 385.08051,625.13491 368.88652,624.78505 C351.03395,624.39935 316.69275,614.69093 291.16361,606.39241 C259.85107,596.21394 234.96448,590.8325 237.13155,573.54631 C238.26029,564.54259 250.65924,555.33451 274.32842,545.92207 L274.32842,545.92207 Z" id="Path-3" fill="#FFFFFF" fill-rule="nonzero"></path>
                </g>
            </g>
        </g>
    </g>
</svg>